<svg aria-hidden="true" style="position: absolute; width: 0; height: 0; overflow: hidden;" version="1.1" xmlns="http://www.w3.org/2000/svg" xmlns:xlink="http://www.w3.org/1999/xlink">
<defs>
<symbol id="icon-arrow-left" viewBox="0 0 32 32">
<path stroke-linejoin="round" stroke-linecap="round" stroke-miterlimit="4" stroke-width="2.6667" d="M25.333 16h-18.667"></path>
<path stroke-linejoin="round" stroke-linecap="round" stroke-miterlimit="4" stroke-width="2.6667" d="M16 25.333l-9.333-9.333 9.333-9.333"></path>
</symbol>
<symbol id="icon-arrow-right" viewBox="0 0 32 32">
<path stroke-linejoin="round" stroke-linecap="round" stroke-miterlimit="4" stroke-width="2.6667" d="M6.667 16h18.667"></path>
<path stroke-linejoin="round" stroke-linecap="round" stroke-miterlimit="4" stroke-width="2.6667" d="M16 25.333l9.333-9.333-9.333-9.333"></path>
</symbol>
<symbol id="icon-close" viewBox="0 0 32 32">
<path stroke-linejoin="miter" stroke-linecap="butt" stroke-miterlimit="4" stroke-width="2.1333" d="M8.533 8.533l14.933 14.933"></path>
<path stroke-linejoin="miter" stroke-linecap="butt" stroke-miterlimit="4" stroke-width="2.1333" d="M8.533 23.467l14.933-14.933"></path>
</symbol>
<symbol id="icon-film" viewBox="0 0 32 32">
<path fill="none" stroke="#818181" style="stroke: var(--color1, #818181)" stroke-linejoin="round" stroke-linecap="round" stroke-miterlimit="4" stroke-width="2.6667" d="M26.427 2.667h-20.853c-1.605 0-2.907 1.301-2.907 2.907v20.853c0 1.605 1.301 2.907 2.907 2.907h20.853c1.605 0 2.907-1.301 2.907-2.907v-20.853c0-1.605-1.301-2.907-2.907-2.907z"></path>
<path fill="none" stroke="#818181" style="stroke: var(--color1, #818181)" stroke-linejoin="round" stroke-linecap="round" stroke-miterlimit="4" stroke-width="2.6667" d="M9.333 2.667v26.667"></path>
<path fill="none" stroke="#818181" style="stroke: var(--color1, #818181)" stroke-linejoin="round" stroke-linecap="round" stroke-miterlimit="4" stroke-width="2.6667" d="M22.667 2.667v26.667"></path>
<path fill="none" stroke="#818181" style="stroke: var(--color1, #818181)" stroke-linejoin="round" stroke-linecap="round" stroke-miterlimit="4" stroke-width="2.6667" d="M2.667 16h26.667"></path>
<path fill="none" stroke="#818181" style="stroke: var(--color1, #818181)" stroke-linejoin="round" stroke-linecap="round" stroke-miterlimit="4" stroke-width="2.6667" d="M2.667 9.333h6.667"></path>
<path fill="none" stroke="#818181" style="stroke: var(--color1, #818181)" stroke-linejoin="round" stroke-linecap="round" stroke-miterlimit="4" stroke-width="2.6667" d="M2.667 22.667h6.667"></path>
<path fill="none" stroke="#818181" style="stroke: var(--color1, #818181)" stroke-linejoin="round" stroke-linecap="round" stroke-miterlimit="4" stroke-width="2.6667" d="M22.667 22.667h6.667"></path>
<path fill="none" stroke="#818181" style="stroke: var(--color1, #818181)" stroke-linejoin="round" stroke-linecap="round" stroke-miterlimit="4" stroke-width="2.6667" d="M22.667 9.333h6.667"></path>
</symbol>
<symbol id="icon-heart" viewBox="0 0 32 32">
<path fill="#ff6b08" style="fill: var(--color2, #ff6b08)" d="M16 30.144l-2.24-2.218c-8.32-7.287-13.76-12.198-13.76-18.218 0-4.911 3.84-8.713 8.8-8.713 2.72 0 5.44 1.267 7.2 3.327 1.76-2.059 4.48-3.327 7.2-3.327 4.96 0 8.8 3.802 8.8 8.713 0 6.020-5.44 10.931-13.76 18.218l-2.24 2.218z"></path>
</symbol>

<symbol id="icon-search" viewBox="0 0 32 32">
<path fill="none" stroke="#fff" style="stroke: var(--color3, #fff)" stroke-linejoin="round" stroke-linecap="round" stroke-miterlimit="4" stroke-width="2.6667" d="M14.667 25.333c5.891 0 10.667-4.776 10.667-10.667s-4.776-10.667-10.667-10.667c-5.891 0-10.667 4.776-10.667 10.667s4.776 10.667 10.667 10.667z"></path>
<path fill="none" stroke="#fff" style="stroke: var(--color3, #fff)" stroke-linejoin="round" stroke-linecap="round" stroke-miterlimit="4" stroke-width="2.6667" d="M28 28.001l-5.8-5.8"></path>
</symbol>

<symbol id="close" viewBox="0 0 32 32">
<path d="M32 3.223l-3.223-3.223-12.777 12.777-12.777-12.777-3.223 3.223 12.777 12.777-12.777 12.777 3.223 3.223 12.777-12.777 12.777 12.777 3.223-3.223-12.777-12.777 12.777-12.777z"></path>
</symbol>

<symbol id="icon-moon" viewBox="0 0 32 32">
<path d="M16 4c-6.627 0-12 5.373-12 12s5.373 12 12 12 12-5.373 12-12c0-0.613-0.053-1.227-0.133-1.813-1.307 1.827-3.44 3.013-5.867 3.013-3.973 0-7.2-3.227-7.2-7.2 0-2.413 1.187-4.56 3.013-5.867-0.587-0.080-1.2-0.133-1.813-0.133v0z"></path>
</symbol>

<symbol id="icon-sun" viewBox="0 0 30 32">
<path d="M13.742 2.565c-0.807 1.4-1.465 2.547-1.46 2.552 0.008 0.005 0.13-0.025 0.275-0.065 1.742-0.49 3.432-0.492 5.265-0.013 0.183 0.048 0.337 0.082 0.343 0.077 0.012-0.013-2.92-5.093-2.94-5.093-0.008 0-0.675 1.143-1.482 2.54z"></path>
<path d="M5.825 3.11c0 0.038 0.588 5.668 0.605 5.8 0.005 0.035 0.040 0.008 0.133-0.113 0.94-1.213 2.063-2.133 3.412-2.795 0.313-0.155 0.912-0.407 1.21-0.513 0.025-0.008 0.043-0.020 0.037-0.025-0.015-0.015-5.305-2.37-5.353-2.382-0.030-0.010-0.045 0-0.045 0.027z"></path>
<path d="M21.895 4.27c-1.468 0.655-2.66 1.197-2.65 1.205 0.010 0.010 0.135 0.060 0.28 0.112 1.668 0.603 3.165 1.697 4.305 3.14 0.133 0.17 0.185 0.22 0.19 0.182 0.017-0.135 0.605-5.763 0.605-5.795 0-0.022-0.015-0.040-0.030-0.038-0.017 0-1.232 0.538-2.7 1.192z"></path>
<path d="M14.463 5.543c-3.055 0.25-5.783 1.732-7.6 4.133-2.088 2.758-2.678 6.378-1.575 9.668 0.787 2.348 2.4 4.352 4.522 5.628 1.39 0.835 2.85 1.313 4.498 1.47 0.533 0.050 1.602 0.038 2.117-0.027 1.53-0.188 2.918-0.663 4.215-1.442 2.497-1.497 4.267-3.997 4.858-6.865 0.145-0.698 0.205-1.323 0.205-2.105 0-0.62-0.025-0.977-0.102-1.518-0.465-3.178-2.36-5.963-5.15-7.57-0.962-0.555-2.093-0.978-3.2-1.197-0.66-0.13-1.082-0.17-1.9-0.178-0.42-0.003-0.818-0.003-0.887 0.005z"></path>
<path d="M5.65 9.852c-0.048 0.012-0.808 0.175-1.688 0.363-3.027 0.64-3.947 0.838-3.953 0.842-0.003 0.002 0.885 0.992 1.975 2.2l1.978 2.195 0.030-0.453c0.033-0.53 0.065-0.787 0.148-1.25 0.235-1.287 0.755-2.56 1.508-3.685 0.065-0.098 0.128-0.193 0.138-0.21 0.020-0.035-0.008-0.035-0.135-0.002z"></path>
<path d="M24.665 9.855c0.010 0.018 0.095 0.145 0.185 0.283 0.258 0.385 0.438 0.703 0.663 1.172 0.552 1.143 0.85 2.305 0.938 3.665 0.015 0.24 0.030 0.447 0.032 0.457s0.895-0.967 1.985-2.175c1.087-1.207 1.975-2.197 1.973-2.2-0.003-0.005-0.267-0.063-1.602-0.345-0.22-0.047-0.585-0.125-0.813-0.172s-1.025-0.217-1.775-0.377c-0.75-0.158-1.41-0.297-1.468-0.313-0.133-0.033-0.14-0.033-0.117 0.005z"></path>
<path d="M1.982 18.74c-1.087 1.21-1.975 2.2-1.972 2.203s1.363 0.293 3.44 0.733c1.62 0.345 2.215 0.47 2.285 0.49 0.085 0.020 0.095 0.045-0.135-0.302-0.258-0.385-0.438-0.705-0.662-1.172-0.55-1.137-0.848-2.297-0.938-3.652-0.015-0.235-0.030-0.44-0.033-0.46-0.002-0.017-0.895 0.955-1.985 2.163z"></path>
<path d="M26.455 17.032c-0.113 1.773-0.628 3.325-1.6 4.817-0.11 0.172-0.198 0.315-0.195 0.317 0.005 0.005 0.108-0.015 0.23-0.043s1.285-0.275 2.585-0.55c1.3-0.275 2.5-0.53 2.67-0.567l0.308-0.065-0.085-0.090c-0.047-0.050-0.905-1.003-1.905-2.115-1-1.115-1.855-2.063-1.898-2.108l-0.080-0.082-0.030 0.485z"></path>
<path d="M6.128 25.973c-0.17 1.613-0.303 2.935-0.295 2.942s1.223-0.525 2.702-1.183c1.477-0.657 2.68-1.203 2.67-1.21s-0.162-0.067-0.34-0.133c-1.695-0.628-3.112-1.685-4.353-3.253l-0.077-0.095-0.308 2.93z"></path>
<path d="M23.837 23.262c-0.37 0.475-0.745 0.878-1.175 1.26-0.99 0.883-1.97 1.455-3.4 1.99-0.043 0.015-0.038 0.023 0.050 0.063 0.055 0.023 1.267 0.563 2.695 1.198 1.427 0.637 2.602 1.15 2.61 1.142 0.010-0.010-0.567-5.63-0.6-5.84-0.003-0.020-0.082 0.065-0.18 0.188z"></path>
<path d="M12.277 26.892c0.025 0.065 2.935 5.082 2.947 5.082s2.923-5.018 2.947-5.082c0.010-0.027 0.027-0.032-0.495 0.108-0.845 0.223-1.515 0.308-2.415 0.31-0.895 0-1.643-0.093-2.475-0.31-0.518-0.135-0.52-0.137-0.51-0.108z"></path>
</symbol>
<symbol id="icon-btn-play" viewBox="0 0 32 32">
<path d="M1.627 0c-0.040 0.124-0.080 0.247-0.080 0.411v30.972c0 0.289 0.081 0.453 0.245 0.617l15.22-16.124zM18.039 16.944l3.935 4.060-5.617 3.2c0 0-7.14 4.059-11.077 6.319zM19.107 15.836l4.221 4.389c0.661-0.368 5.828-3.323 6.565-3.733 0.779-0.451 0.7-1.067 0.039-1.395-0.612-0.34-5.779-3.3-6.56-3.78l-4.271 4.523zM18.036 14.769l3.979-4.225-5.679-3.241c0 0-9.257-5.296-12.337-7.064l14.040 14.531z"></path>
</symbol>
<symbol id="icon-btn-up" viewBox="0 0 24 28">
<path d="M18.203 17.797l1.594-1.594c0.391-0.391 0.391-1.016 0-1.406l-7.094-7.094c-0.391-0.391-1.016-0.391-1.406 0l-7.094 7.094c-0.391 0.391-0.391 1.016 0 1.406l1.594 1.594c0.391 0.391 1.016 0.391 1.406 0l4.797-4.797 4.797 4.797c0.391 0.391 1.016 0.391 1.406 0zM24 14c0 6.625-5.375 12-12 12s-12-5.375-12-12 5.375-12 12-12 12 5.375 12 12z"></path>
</symbol>

</defs>
</svg>
